<svg width="336" height="208" viewBox="0 0 336 208" fill="none" xmlns="http://www.w3.org/2000/svg">
<g filter="url(#filter0_d_8_20)">
<path d="M142.325 72.5162C143.104 77.0108 149.268 86 167.693 86C186.118 86 192.282 77.0108 193.061 72.5162C193.172 71.99 192.727 71.8211 192.393 72.0991C192.06 72.3772 187.72 74.4623 182.38 71.9601C170.799 64.9216 168.904 64.988 167.887 65.0236C167.819 65.026 167.755 65.0282 167.693 65.0282C167.63 65.0282 167.567 65.026 167.499 65.0236C166.482 64.988 164.586 64.9216 153.006 71.9601C147.665 74.4623 143.326 72.3772 142.992 72.0991C142.658 71.8211 142.213 71.99 142.325 72.5162Z" fill="url(#paint0_linear_8_20)"/>
<path d="M147.086 68.3576C127.408 66.5413 134.485 45.4467 134.747 43.5007C134.835 42.8396 135.269 42.6404 135.53 43.5007C137.185 48.9496 138.727 46.0432 147.086 46.9513C155.444 47.8595 161.887 56.0328 164.325 62.2601C161.278 64.4655 153.564 68.7727 147.086 68.3576Z" fill="url(#paint1_linear_8_20)"/>
<path d="M117.699 37.6898C113.166 33.2862 112 24.8675 112 23.3133C112 22.7952 112.311 22.5362 112.777 22.6657C117.44 23.9609 121.584 26.5513 123.009 28.3645C123.122 28.5085 123.657 29.0121 123.657 30.1778C123.268 37.3013 125.729 41.0573 129.614 44.9428C127.154 44.2952 122.232 42.0934 117.699 37.6898Z" fill="url(#paint2_linear_8_20)"/>
<path d="M128.685 34.7919C122.419 28.7076 120.807 17.0757 120.807 14.9283C120.807 14.2125 121.237 13.8546 121.881 14.0335C128.327 15.823 134.056 19.4021 136.026 21.9074C136.182 22.1064 136.921 22.8022 136.921 24.4127C136.384 34.2551 139.785 39.4447 145.157 44.8132C141.755 43.9185 134.951 40.8763 128.685 34.7919Z" fill="url(#paint3_linear_8_20)"/>
<path d="M139.124 25.8954C135.948 16.1554 140.637 3.20414 141.811 0.975806C142.202 0.233029 142.844 0.0965917 143.415 0.634719C149.125 6.01597 153.113 12.8626 153.786 16.5392C153.84 16.8312 154.226 17.9571 153.345 19.6284C147.406 29.5479 148.099 36.7931 150.737 45.3008C147.696 42.5123 142.3 35.6354 139.124 25.8954Z" fill="url(#paint4_linear_8_20)"/>
<path d="M217.586 37.6898C222.119 33.2862 223.284 24.8675 223.284 23.3133C223.284 22.7952 222.974 22.5362 222.507 22.6657C217.845 23.9609 213.7 26.5513 212.275 28.3645C212.162 28.5085 211.628 29.0121 211.628 30.1778C212.016 37.3013 209.556 41.0573 205.67 44.9428C208.131 44.2952 213.052 42.0934 217.586 37.6898Z" fill="url(#paint5_linear_8_20)"/>
<path d="M206.6 34.7919C212.866 28.7076 214.477 17.0757 214.477 14.9283C214.477 14.2125 214.048 13.8546 213.403 14.0335C206.958 15.823 201.228 19.4021 199.259 21.9074C199.102 22.1064 198.364 22.8022 198.364 24.4127C198.901 34.2551 195.499 39.4447 190.128 44.8132C193.53 43.9185 200.333 40.8763 206.6 34.7919Z" fill="url(#paint6_linear_8_20)"/>
<path d="M196.16 25.8954C199.336 16.1554 194.648 3.20414 193.474 0.975806C193.082 0.233029 192.441 0.0965917 191.87 0.634719C186.16 6.01597 182.172 12.8626 181.498 16.5392C181.445 16.8312 181.058 17.9571 181.939 19.6284C187.878 29.5479 187.186 36.7931 184.548 45.3008C187.588 42.5123 192.985 35.6354 196.16 25.8954Z" fill="url(#paint7_linear_8_20)"/>
<path d="M188.3 68.3576C207.978 66.5413 200.9 45.4467 200.639 43.5007C200.55 42.8396 200.116 42.6404 199.855 43.5007C198.201 48.9496 196.659 46.0432 188.3 46.9513C179.941 47.8595 173.498 56.0328 171.06 62.2601C174.108 64.4655 181.822 68.7727 188.3 68.3576Z" fill="url(#paint8_linear_8_20)"/>
<path d="M150.855 37.8193C150.855 28.5976 162.08 16.8805 167.693 12.1747C173.305 16.8805 184.53 28.5976 184.53 37.8193C184.53 47.041 175.378 58.3263 170.801 62.8163H164.584C160.008 58.3263 150.855 47.041 150.855 37.8193Z" fill="url(#paint9_linear_8_20)"/>
<path d="M184.214 146H222.786C231.07 146 237.786 152.716 237.786 161V173.857C237.786 175.346 237.569 176.785 237.165 178.143H218.929C222.242 178.143 224.929 175.457 224.929 172.143V162.714C224.929 159.401 222.242 156.714 218.929 156.714H197.071V178.143H184.214V146Z" fill="url(#paint10_linear_8_20)"/>
<path d="M14 178.143L29 146H39.7143L53.6429 178.143H42.9286L34.3571 159.929L27.9286 178.143H14Z" fill="url(#paint11_linear_8_20)"/>
<path d="M1 206L12.56 182H26L15.44 206H1Z" fill="url(#paint12_linear_8_20)"/>
<path d="M66 206L55.44 182H44L54.56 206H66Z" fill="url(#paint13_linear_8_20)"/>
<path d="M239 206L228.44 182H217L227.56 206H239Z" fill="url(#paint14_linear_8_20)"/>
<path d="M97 146H110V178H97V146Z" fill="url(#paint15_linear_8_20)"/>
<path d="M97 182V203C97 204.657 98.3431 206 100 206H150C151.657 206 153 204.657 153 203V182H140V192C140 193.657 138.657 195 137 195H113C111.343 195 110 193.657 110 192V182H97Z" fill="url(#paint16_linear_8_20)"/>
<path d="M140 178H153V146H140V178Z" fill="url(#paint17_linear_8_20)"/>
<path d="M197 206V182H184V206H197Z" fill="url(#paint18_linear_8_20)"/>
<path d="M270 206L281.56 182H295L284.44 206H270Z" fill="url(#paint19_linear_8_20)"/>
<path d="M335 206L324.44 182H313L323.56 206H335Z" fill="url(#paint20_linear_8_20)"/>
<path d="M298 146L283 178.143H296.929L303.357 159.929L305.744 165H316.948L308.714 146H298Z" fill="url(#paint21_linear_8_20)"/>
<path d="M319.548 171H308.567L311.929 178.143H322.643L319.548 171Z" fill="url(#paint22_linear_8_20)"/>
</g>
<defs>
<filter id="filter0_d_8_20" x="0" y="0.308289" width="336" height="207.692" filterUnits="userSpaceOnUse" color-interpolation-filters="sRGB">
<feFlood flood-opacity="0" result="BackgroundImageFix"/>
<feColorMatrix in="SourceAlpha" type="matrix" values="0 0 0 0 0 0 0 0 0 0 0 0 0 0 0 0 0 0 127 0" result="hardAlpha"/>
<feOffset dy="1"/>
<feGaussianBlur stdDeviation="0.5"/>
<feComposite in2="hardAlpha" operator="out"/>
<feColorMatrix type="matrix" values="0 0 0 0 0.10816 0 0 0 0 0.291667 0 0 0 0 0.159852 0 0 0 0.1 0"/>
<feBlend mode="normal" in2="BackgroundImageFix" result="effect1_dropShadow_8_20"/>
<feBlend mode="normal" in="SourceGraphic" in2="effect1_dropShadow_8_20" result="shape"/>
</filter>
<linearGradient id="paint0_linear_8_20" x1="168" y1="0.308289" x2="168" y2="206" gradientUnits="userSpaceOnUse">
<stop stop-color="#F4726C"/>
<stop offset="1" stop-color="#F95B54"/>
</linearGradient>
<linearGradient id="paint1_linear_8_20" x1="168" y1="0.308289" x2="168" y2="206" gradientUnits="userSpaceOnUse">
<stop stop-color="#F4726C"/>
<stop offset="1" stop-color="#F95B54"/>
</linearGradient>
<linearGradient id="paint2_linear_8_20" x1="168" y1="0.308289" x2="168" y2="206" gradientUnits="userSpaceOnUse">
<stop stop-color="#F4726C"/>
<stop offset="1" stop-color="#F95B54"/>
</linearGradient>
<linearGradient id="paint3_linear_8_20" x1="168" y1="0.308289" x2="168" y2="206" gradientUnits="userSpaceOnUse">
<stop stop-color="#F4726C"/>
<stop offset="1" stop-color="#F95B54"/>
</linearGradient>
<linearGradient id="paint4_linear_8_20" x1="168" y1="0.308289" x2="168" y2="206" gradientUnits="userSpaceOnUse">
<stop stop-color="#F4726C"/>
<stop offset="1" stop-color="#F95B54"/>
</linearGradient>
<linearGradient id="paint5_linear_8_20" x1="168" y1="0.308289" x2="168" y2="206" gradientUnits="userSpaceOnUse">
<stop stop-color="#F4726C"/>
<stop offset="1" stop-color="#F95B54"/>
</linearGradient>
<linearGradient id="paint6_linear_8_20" x1="168" y1="0.308289" x2="168" y2="206" gradientUnits="userSpaceOnUse">
<stop stop-color="#F4726C"/>
<stop offset="1" stop-color="#F95B54"/>
</linearGradient>
<linearGradient id="paint7_linear_8_20" x1="168" y1="0.308289" x2="168" y2="206" gradientUnits="userSpaceOnUse">
<stop stop-color="#F4726C"/>
<stop offset="1" stop-color="#F95B54"/>
</linearGradient>
<linearGradient id="paint8_linear_8_20" x1="168" y1="0.308289" x2="168" y2="206" gradientUnits="userSpaceOnUse">
<stop stop-color="#F4726C"/>
<stop offset="1" stop-color="#F95B54"/>
</linearGradient>
<linearGradient id="paint9_linear_8_20" x1="168" y1="0.308289" x2="168" y2="206" gradientUnits="userSpaceOnUse">
<stop stop-color="#F4726C"/>
<stop offset="1" stop-color="#F95B54"/>
</linearGradient>
<linearGradient id="paint10_linear_8_20" x1="302.5" y1="146" x2="302.5" y2="206" gradientUnits="userSpaceOnUse">
<stop stop-color="#F05737"/>
<stop offset="1" stop-color="#EE4038"/>
</linearGradient>
<linearGradient id="paint11_linear_8_20" x1="302.5" y1="146" x2="302.5" y2="206" gradientUnits="userSpaceOnUse">
<stop stop-color="#F05737"/>
<stop offset="1" stop-color="#EE4038"/>
</linearGradient>
<linearGradient id="paint12_linear_8_20" x1="302.5" y1="146" x2="302.5" y2="206" gradientUnits="userSpaceOnUse">
<stop stop-color="#F05737"/>
<stop offset="1" stop-color="#EE4038"/>
</linearGradient>
<linearGradient id="paint13_linear_8_20" x1="302.5" y1="146" x2="302.5" y2="206" gradientUnits="userSpaceOnUse">
<stop stop-color="#F05737"/>
<stop offset="1" stop-color="#EE4038"/>
</linearGradient>
<linearGradient id="paint14_linear_8_20" x1="302.5" y1="146" x2="302.5" y2="206" gradientUnits="userSpaceOnUse">
<stop stop-color="#F05737"/>
<stop offset="1" stop-color="#EE4038"/>
</linearGradient>
<linearGradient id="paint15_linear_8_20" x1="302.5" y1="146" x2="302.5" y2="206" gradientUnits="userSpaceOnUse">
<stop stop-color="#F05737"/>
<stop offset="1" stop-color="#EE4038"/>
</linearGradient>
<linearGradient id="paint16_linear_8_20" x1="302.5" y1="146" x2="302.5" y2="206" gradientUnits="userSpaceOnUse">
<stop stop-color="#F05737"/>
<stop offset="1" stop-color="#EE4038"/>
</linearGradient>
<linearGradient id="paint17_linear_8_20" x1="302.5" y1="146" x2="302.5" y2="206" gradientUnits="userSpaceOnUse">
<stop stop-color="#F05737"/>
<stop offset="1" stop-color="#EE4038"/>
</linearGradient>
<linearGradient id="paint18_linear_8_20" x1="302.5" y1="146" x2="302.5" y2="206" gradientUnits="userSpaceOnUse">
<stop stop-color="#F05737"/>
<stop offset="1" stop-color="#EE4038"/>
</linearGradient>
<linearGradient id="paint19_linear_8_20" x1="302.5" y1="146" x2="302.5" y2="206" gradientUnits="userSpaceOnUse">
<stop stop-color="#F05737"/>
<stop offset="1" stop-color="#EE4038"/>
</linearGradient>
<linearGradient id="paint20_linear_8_20" x1="302.5" y1="146" x2="302.5" y2="206" gradientUnits="userSpaceOnUse">
<stop stop-color="#F05737"/>
<stop offset="1" stop-color="#EE4038"/>
</linearGradient>
<linearGradient id="paint21_linear_8_20" x1="302.5" y1="146" x2="302.5" y2="206" gradientUnits="userSpaceOnUse">
<stop stop-color="#F05737"/>
<stop offset="1" stop-color="#EE4038"/>
</linearGradient>
<linearGradient id="paint22_linear_8_20" x1="302.5" y1="146" x2="302.5" y2="206" gradientUnits="userSpaceOnUse">
<stop stop-color="#F05737"/>
<stop offset="1" stop-color="#EE4038"/>
</linearGradient>
</defs>
</svg>
